<svg xmlns="http://www.w3.org/2000/svg" width="24.012" height="30" viewBox="0 0 24.012 30">
  <path fill="rgb(51,51,51)" fill-rule="evenodd" d="M24.00613403 25.93251038l-1.7177887-19.34355164c-.03681182-.42945099-.39877319-.75460052-.82209014-.75460052H17.932518C17.8834381 2.60736084 15.24539948 0 12.00613403 0 8.76687241 0 6.12883377 2.60736084 6.07975388 5.83435822h-3.533741c-.42944908 0-.78527641.32514953-.82208634.75460052L.00613404 25.93251038C.00613403 25.95706177 0 25.9815979 0 26.00613403 0 28.20858765 2.01840591 30 4.50306702 30h15.00613403c2.48466492 0 4.50306702-1.79141235 4.50306702-3.99386597 0-.02453613 0-.04907226-.00613404-.07362365zm-12-24.27606965c2.32515335 0 4.22085953 1.86502839 4.26993561 4.17791749H7.73619461c.0490799-2.3128891 1.94478607-4.17791749 4.26993942-4.17791749zM4.50306702 28.3435669h15.00613403c1.55214691 0 2.82208633-1.03068542 2.84662628-2.30062866l-1.6503067-18.54600525h-2.77300644v2.51533509c0 .46012878-.36809921.82822418-.82822037.82822418-.46012115 0-.82822036-.3680954-.82822036-.82822418V7.49693298H7.73006058v2.51533509c0 .46012878-.36809922.82822418-.82822037.82822418-.46012306 0-.82822227-.3680954-.82822227-.82822418V7.49693298H3.3006134L1.65644073 26.04293823c.02453995 1.26994324 1.28834343 2.30062866 2.84662629 2.30062866z"/>
</svg>
