<svg xmlns="http://www.w3.org/2000/svg" width="30" height="20" viewBox="0 0 30 20">
  <path fill="rgb(229,218,194)" fill-rule="evenodd" d="M28.46150458 0H1.53849609C.6922853 0 0 .69228508 0 1.53843753v16.9231052c0 .84609389.6922853 1.5384972 1.5384961 1.5384972h26.9230657c.8460939 0 1.53849542-.6922853 1.53849542-1.5384972V1.53843753C30 .69228508 29.3077147 0 28.46150458 0zm-.57732403 1.15376953l-11.99918032 9.00011715c-.21574259.1641798-.54691494.2668941-.88505924.2653706-.3380853.0015235-.66919863-.1011908-.88500023-.2653706L2.1157618 1.15376953h25.76841876zm.12890696 17.67093714l-6.53847813-8.07697177c-.20045043-.24767696-.16236306-.6112504.0857234-.8115828.2473247-.20038962.6107819-.16230404.81117153.08537114l6.47443413 7.99798786V1.87494144l-12.2691822 9.20191482c-.461483.343827-1.02304459.49499988-1.57687336.49617111-.55458963-.0015235-1.11568362-.15269458-1.57687515-.49617111L1.1538282 1.87494144v16.14468768l6.47460938-7.99810588c.20039052-.2477342.56349546-.28570354.81117242-.08537114.24814368.2008009.28611303.56390584.08578063.8115828l-6.53847635 8.07697177c-.0065627.00808597-.01464844.0138867-.02156273.02156318H28.0346489c-.00697375-.00732422-.01499892-.01347721-.02156139-.02156318z"/>
</svg>
